<svg width="16" height="12" viewBox="0 0 16 12" fill="none" xmlns="http://www.w3.org/2000/svg">
<path d="M13.8439 0H1.68079C0.906884 0 0.277344 0.628107 0.277344 1.40026V9.80173C0.277344 10.5739 0.906884 11.202 1.68079 11.202H13.8439C14.6178 11.202 15.2474 10.5739 15.2474 9.80173V1.40026C15.2474 0.628107 14.6178 0 13.8439 0ZM13.8439 0.933493C13.9075 0.933493 13.968 0.94665 14.0232 0.969628L7.76236 6.38361L1.50146 0.969628C1.55674 0.946681 1.6172 0.933493 1.68076 0.933493H13.8439ZM13.8439 10.2685H1.68079C1.42268 10.2685 1.21297 10.0593 1.21297 9.80169V1.95587L7.45581 7.35402C7.54399 7.43013 7.65318 7.46798 7.76236 7.46798C7.87154 7.46798 7.98073 7.43016 8.06891 7.35402L14.3118 1.95587V9.80173C14.3117 10.0593 14.102 10.2685 13.8439 10.2685Z" fill="#757575"/>
</svg>
